<?xml version="1.0" standalone="no"?>
<!DOCTYPE svg PUBLIC "-//W3C//DTD SVG 20010904//EN"
 "http://www.w3.org/TR/2001/REC-SVG-20010904/DTD/svg10.dtd">
<svg version="1.0" xmlns="http://www.w3.org/2000/svg"
 width="1024.000000pt" height="1024.000000pt" viewBox="0 0 1024.000000 1024.000000"
 preserveAspectRatio="xMidYMid meet">

<g transform="translate(0.000000,1024.000000) scale(0.100000,-0.100000)"
fill="#000000" stroke="none">
<path d="M6284 10212 c21 -41 31 -47 140 -86 128 -47 203 -93 300 -186 96 -91
161 -180 188 -257 20 -58 36 -163 25 -163 -16 0 -126 54 -181 88 -78 49 -262
134 -346 161 -94 29 -374 98 -450 111 -146 23 -290 33 -569 37 -494 8 -736
-26 -1211 -171 -443 -136 -996 -450 -1387 -788 -230 -199 -526 -544 -675 -788
-39 -63 -92 -149 -118 -190 -26 -41 -59 -99 -74 -128 -15 -29 -43 -77 -62
-108 -47 -74 -231 -416 -251 -468 -9 -22 -24 -52 -33 -66 -10 -14 -29 -48 -43
-75 -34 -68 -173 -261 -260 -360 -70 -79 -223 -227 -327 -316 -64 -54 -288
-209 -304 -209 -6 -1 -36 -20 -66 -43 -62 -49 -72 -83 -31 -103 45 -23 235
-27 396 -9 124 14 174 24 285 62 74 25 163 60 197 79 34 19 66 34 71 34 5 0
-13 -64 -40 -142 -138 -392 -298 -884 -318 -973 -69 -313 -80 -376 -90 -491
-17 -215 -13 -485 10 -619 26 -151 39 -197 117 -395 78 -201 88 -221 135 -272
31 -33 39 -38 56 -29 27 14 32 51 32 216 0 78 4 177 10 221 5 43 12 120 16
169 4 50 9 81 12 70 64 -302 157 -606 228 -746 13 -26 32 -70 43 -99 46 -122
264 -451 384 -580 156 -168 290 -265 422 -304 41 -13 45 -12 50 5 8 23 -9 116
-45 249 -69 257 -93 412 -41 270 67 -186 285 -462 434 -548 l79 -46 -29 -14
c-108 -55 -136 -189 -88 -422 5 -22 -5 -33 -86 -90 -49 -36 -103 -83 -120
-104 -25 -35 -29 -48 -29 -105 0 -81 22 -186 48 -237 38 -75 256 -265 330
-288 31 -10 38 -29 51 -135 7 -51 16 -102 22 -113 6 -11 8 -23 4 -26 -4 -4
-127 -7 -273 -7 -250 0 -269 -2 -302 -21 -47 -27 -70 -87 -50 -133 28 -69
-230 -63 2827 -62 1523 0 2781 1 2796 1 44 0 97 58 97 104 0 50 -24 82 -76
102 -39 15 -74 16 -329 9 l-285 -7 5 29 c2 15 9 77 15 138 6 60 12 110 13 111
1 0 25 9 52 19 114 41 285 173 328 253 52 96 72 242 43 320 -14 40 -76 105
-152 158 -54 38 -55 40 -49 79 3 22 8 87 11 145 10 164 -11 212 -112 270 -31
17 -53 35 -48 39 5 4 52 39 104 78 134 100 230 215 291 349 95 210 44 -121
-71 -456 -36 -108 -39 -130 -18 -143 13 -9 36 -1 110 37 51 27 117 66 147 87
30 22 57 39 61 39 6 0 146 126 164 149 6 7 38 42 71 77 32 35 64 72 70 82 5
10 34 46 64 79 29 33 63 76 75 96 11 20 46 71 77 114 31 43 68 101 82 128 14
28 46 82 72 120 91 138 204 392 295 665 31 92 65 249 80 365 16 132 20 140 36
75 24 -94 35 -236 35 -452 -1 -212 6 -258 35 -258 30 0 98 83 146 181 52 104
128 323 152 439 55 262 39 765 -34 1096 -40 179 -126 508 -139 533 -6 10 -15
40 -21 67 -6 27 -28 110 -50 184 -72 249 -181 634 -206 725 -43 157 -104 356
-152 490 -41 119 -63 171 -168 406 -19 42 -69 139 -111 215 -42 77 -89 163
-105 193 -50 96 -246 390 -293 441 -18 19 -44 53 -58 75 -45 73 -295 333 -407
424 -30 25 -59 50 -65 56 -15 16 -237 183 -330 247 -44 31 -117 74 -162 97
-45 22 -85 45 -88 52 -4 6 4 23 17 37 40 44 60 108 66 214 4 86 2 104 -23 175
-48 137 -94 198 -199 262 -76 46 -232 108 -345 137 -85 22 -113 24 -318 24
l-224 0 15 -28z m-579 -517 c149 -17 402 -60 488 -81 216 -55 687 -328 687
-398 0 -6 -17 7 -38 27 -27 27 -93 62 -233 125 -234 107 -279 124 -411 158
-258 65 -551 86 -944 65 -320 -16 -514 -52 -821 -151 -367 -119 -783 -335
-1088 -565 -60 -46 -121 -94 -135 -107 -14 -13 -70 -62 -125 -110 -151 -130
-308 -305 -480 -533 -17 -22 -51 -73 -77 -114 l-48 -75 28 -12 c31 -13 52 -51
52 -93 0 -16 -12 -62 -26 -102 -14 -41 -28 -86 -31 -101 -3 -16 -10 -28 -15
-28 -6 0 -7 7 -4 16 7 17 1 14 -57 -27 -21 -16 -59 -31 -83 -35 -55 -8 -65
-21 -148 -197 -101 -212 -112 -237 -164 -383 -89 -248 -140 -415 -192 -628
-59 -241 -133 -669 -150 -866 -19 -241 -40 -1145 -26 -1168 2 -4 7 -38 10 -77
19 -207 66 -421 158 -710 75 -240 149 -417 231 -558 22 -37 38 -70 35 -72 -5
-6 -88 111 -146 207 -141 230 -303 698 -359 1036 -25 153 -28 188 -27 422 0
248 11 379 54 664 20 131 -1 95 -93 -160 -75 -208 -190 -581 -206 -669 -14
-79 -38 -261 -46 -353 -4 -40 -9 -71 -11 -69 -10 10 -25 246 -25 402 0 215 21
387 76 635 47 205 66 276 172 615 36 116 75 244 88 285 123 410 186 601 309
925 24 66 39 113 33 103 -7 -9 -41 -57 -76 -108 -118 -167 -305 -319 -536
-433 -98 -49 -209 -86 -220 -75 -3 2 17 21 44 41 26 20 86 76 132 125 220 229
330 383 568 797 405 703 522 882 766 1170 249 293 562 547 967 784 407 238
784 368 1263 435 241 34 217 33 500 34 169 1 292 -3 380 -13z m-776 -329 c-2
-2 -51 -28 -109 -58 -514 -270 -739 -413 -1065 -677 -307 -249 -607 -606 -823
-978 -23 -39 -42 -73 -42 -75 0 -2 12 -4 27 -5 37 -2 53 -28 53 -89 0 -76 -40
-156 -100 -197 -35 -24 -65 -21 -87 9 l-19 26 -39 -84 c-37 -81 -84 -185 -150
-338 -137 -317 -304 -1025 -345 -1459 -36 -381 -45 -625 -31 -811 17 -214 44
-438 75 -622 15 -81 26 -151 26 -155 0 -4 -21 53 -45 127 -55 163 -108 420
-132 630 -22 197 -25 818 -5 980 115 926 309 1545 666 2130 169 278 354 509
572 716 171 162 217 200 413 337 296 208 593 374 861 480 63 26 153 62 200 81
76 31 111 43 99 32z m2245 -201 c126 -32 244 -94 406 -215 335 -252 582 -517
824 -885 281 -426 461 -822 621 -1364 467 -1587 485 -1665 490 -2121 3 -258
-1 -367 -13 -355 -3 3 -7 13 -8 23 -1 9 -4 31 -8 47 -3 17 -11 59 -17 95 -27
156 -134 506 -243 795 -15 38 -38 126 -52 195 -26 131 -82 351 -91 360 -3 3
-3 -8 1 -25 3 -16 15 -118 26 -225 12 -107 28 -242 38 -300 22 -134 24 -688 4
-845 -23 -175 -60 -377 -87 -470 -68 -237 -206 -554 -304 -703 -23 -34 -44
-62 -47 -62 -9 0 9 56 32 95 81 138 210 496 258 712 14 59 39 205 57 323 33
212 33 220 34 565 0 199 -5 413 -12 495 -16 177 -30 378 -38 525 -5 111 -38
326 -76 504 -26 121 -30 135 -159 586 -34 120 -129 355 -192 476 -31 62 -55
91 -120 148 -45 39 -87 70 -92 68 -6 -2 -12 -14 -14 -28 -7 -59 -12 -69 -37
-69 -35 0 -61 29 -101 113 -44 93 -49 124 -30 190 21 72 49 107 87 107 27 0
30 3 24 23 -11 38 -155 244 -273 391 -209 261 -428 469 -687 653 -122 87 -174
113 -290 148 -49 15 -97 29 -105 31 -13 5 -13 6 0 14 25 16 93 11 194 -15z
m663 -1062 c214 -335 328 -569 482 -985 64 -174 196 -682 235 -908 104 -591
119 -1273 40 -1770 -15 -99 -76 -317 -101 -360 -10 -19 -13 -20 -9 -5 38 164
48 230 67 405 19 182 20 244 16 560 -6 416 -25 615 -98 1060 -64 386 -165 817
-224 956 -9 21 -32 80 -50 129 -18 50 -58 142 -88 205 -30 63 -57 128 -61 145
-18 72 -118 305 -205 475 -106 208 -146 294 -132 286 5 -3 62 -90 128 -193z
m-1704 46 c28 -38 32 -106 10 -149 -25 -49 -54 -51 -98 -7 -29 29 -35 42 -35
79 0 25 8 56 20 76 17 28 25 33 52 30 20 -2 38 -13 51 -29z m-315 -23 c17 -33
8 -108 -13 -126 -19 -16 -43 2 -62 47 -19 46 -17 60 12 89 30 30 45 28 63 -10z
m-3194 -415 c-9 -22 -20 -41 -25 -41 -5 0 1 20 13 45 27 55 35 53 12 -4z
m5265 -253 c34 -35 47 -80 38 -135 -8 -47 -17 -55 -64 -57 -37 -1 -39 1 -66
56 -32 63 -31 98 4 143 27 33 50 32 88 -7z m-153 -59 c9 -15 8 -114 -1 -128
-10 -18 -43 -13 -66 10 -25 25 -21 79 7 110 19 21 49 25 60 8z m-4546 -18 c14
-28 12 -76 -5 -118 -26 -61 -56 -70 -80 -23 -18 35 -12 70 18 115 35 50 50 56
67 26z m3420 -178 c106 -205 203 -369 271 -459 l48 -63 -337 -171 c-185 -94
-386 -199 -446 -235 -60 -36 -111 -65 -113 -65 -2 0 18 33 45 73 143 213 244
410 317 618 39 111 100 350 111 430 4 27 8 49 9 49 2 0 45 -80 95 -177z
m-2426 -389 c-85 -315 -88 -324 -94 -324 -9 1 -243 125 -243 130 0 3 39 43 88
90 49 47 137 138 194 202 58 64 107 116 108 114 2 -2 -22 -97 -53 -212z m539
-126 c10 -68 38 -229 62 -358 68 -363 78 -451 79 -670 l0 -195 -31 -75 c-18
-45 -27 -78 -21 -81 26 -16 170 33 343 116 229 111 528 345 707 554 45 53 83
97 84 99 1 2 22 -11 48 -29 27 -19 58 -32 76 -32 61 0 485 228 839 451 96 61
116 70 129 60 9 -7 51 -49 93 -93 43 -44 118 -111 168 -150 49 -38 90 -73 90
-77 1 -10 -101 -39 -304 -88 -358 -86 -850 -227 -1015 -292 -184 -71 -254
-108 -206 -108 32 0 40 -28 27 -96 -8 -36 -12 -67 -10 -69 2 -2 31 3 64 11 33
7 63 14 66 14 4 0 9 -66 11 -147 4 -119 9 -160 26 -207 108 -295 426 -474 707
-397 249 69 423 254 486 518 18 73 20 105 15 193 -4 58 -9 121 -12 140 l-6 35
97 -5 c68 -4 99 -10 106 -20 16 -24 1 -196 -27 -308 -37 -145 -27 -151 76 -46
46 47 80 75 80 65 0 -32 -49 -173 -85 -246 -74 -148 -171 -269 -321 -401 -65
-56 -77 -63 -104 -58 -39 8 -56 -6 -121 -108 -56 -88 -99 -174 -99 -200 0 -24
35 -41 59 -29 23 13 96 114 142 197 l33 62 61 5 c75 7 329 80 414 118 35 16
66 27 69 24 9 -9 -39 -285 -64 -374 -62 -215 -250 -419 -519 -566 -236 -129
-642 -261 -965 -315 -69 -12 -163 -30 -210 -40 -251 -55 -713 -62 -1005 -15
-750 120 -1231 306 -1538 595 -121 113 -173 207 -222 401 -26 102 -42 259 -25
259 4 0 37 -14 72 -30 76 -36 180 -60 260 -60 l56 0 -59 -90 c-63 -96 -71
-128 -38 -148 27 -17 36 -9 133 120 78 103 99 155 75 184 -7 9 -21 13 -33 10
-52 -14 -182 108 -291 273 -59 89 -151 294 -169 376 -7 28 -4 26 48 -27 31
-32 63 -58 72 -58 18 0 18 11 -9 170 -20 114 -29 252 -19 267 8 13 207 41 217
32 2 -3 0 -32 -5 -65 -17 -101 -12 -262 10 -350 32 -129 82 -217 180 -315 117
-118 231 -171 400 -185 189 -16 411 99 522 270 64 99 90 198 96 362 l4 140 59
-20 c32 -11 61 -18 64 -14 4 4 2 37 -4 74 -11 74 -9 84 20 84 120 0 -343 179
-813 315 -170 49 -338 92 -610 154 -54 13 -98 25 -98 26 0 2 46 28 103 57 56
29 164 94 239 144 116 78 139 90 149 78 13 -16 172 -122 252 -167 26 -16 47
-29 47 -31 0 -2 -16 -38 -35 -79 -19 -42 -31 -78 -27 -81 4 -2 51 16 105 41
l97 46 57 -36 c99 -60 304 -157 335 -157 41 0 119 42 156 85 40 44 40 61 3 68
-29 6 -338 164 -375 192 -18 14 -14 20 85 122 57 60 146 156 198 216 51 59 96
107 100 107 4 0 15 -55 24 -122z m2846 -624 c2 -2 2 -7 -2 -10 -9 -10 -57 5
-57 17 0 10 48 4 59 -7z m-206 -191 c-7 -2 -21 -2 -30 0 -10 3 -4 5 12 5 17 0
24 -2 18 -5z m-3952 -70 c-12 -20 -14 -14 -5 12 4 9 9 14 11 11 3 -2 0 -13 -6
-23z m1334 -2480 c53 -25 92 -119 74 -182 -2 -7 2 -16 10 -19 9 -3 11 0 6 8
-5 9 -4 11 4 6 6 -4 9 -11 6 -16 -3 -5 -1 -11 4 -14 5 -4 36 -58 69 -121 33
-62 86 -151 116 -196 31 -45 56 -86 56 -90 0 -28 -184 101 -225 158 -16 23
-38 42 -49 42 -10 1 -57 -21 -105 -48 -122 -69 -312 -163 -318 -158 -9 9 51
145 173 395 68 138 128 252 134 252 5 0 25 -8 45 -17z m1203 -25 c11 -18 23
-44 26 -58 6 -23 6 -23 -7 -8 -8 10 -18 14 -22 10 -5 -4 -5 1 -1 12 5 15 2 17
-18 12 -16 -4 -26 -1 -30 10 -5 12 -1 14 17 9 20 -6 21 -5 3 6 -16 10 -22 9
-33 -7 -7 -10 -13 -14 -13 -10 0 5 -7 3 -15 -4 -24 -20 -17 4 8 27 20 19 41
30 59 32 3 1 15 -14 26 -31z m104 -198 c46 -88 181 -401 174 -407 -9 -9 -178
77 -268 136 -42 27 -91 57 -108 66 l-31 16 -73 -69 c-62 -59 -204 -158 -213
-148 -2 1 19 36 46 77 27 41 77 127 111 191 34 65 66 120 71 124 5 3 7 9 4 14
-3 5 0 12 6 16 8 4 9 3 5 -4 -10 -16 -5 -15 51 9 41 18 158 40 187 35 4 -1 21
-26 38 -56z m438 25 c121 -7 345 -89 370 -135 7 -12 7 -20 1 -20 -5 0 -49 -48
-97 -107 -115 -140 -183 -213 -201 -213 -7 0 -24 17 -36 38 l-22 37 -3 -61
c-2 -34 4 -92 13 -129 26 -113 27 -111 -62 -110 -96 0 -152 -25 -280 -124 -83
-64 -220 -199 -253 -248 l-15 -22 -148 27 c-140 25 -150 29 -163 55 -13 24
-13 33 1 72 8 25 15 56 15 69 0 57 12 83 45 99 56 27 164 137 226 231 33 50
63 91 67 91 4 0 54 -24 112 -52 182 -88 321 -119 333 -73 6 24 -17 108 -68
252 -45 128 -115 300 -126 313 -5 5 -9 12 -9 17 0 7 104 5 300 -7z m-2079 -37
c-10 -24 -35 -79 -56 -123 -46 -100 -102 -270 -116 -353 -10 -55 -9 -66 5 -80
14 -15 22 -14 90 6 41 12 137 51 212 87 75 36 138 64 139 63 2 -2 22 -34 45
-72 87 -144 166 -228 258 -275 40 -21 51 -34 34 -45 -4 -3 -57 8 -118 25 -158
42 -165 41 -217 -30 l-42 -58 -136 5 c-109 4 -150 1 -207 -13 -109 -26 -225
-103 -273 -180 l-19 -30 0 30 c0 56 30 215 70 370 24 91 42 191 46 242 l6 88
-31 -47 c-17 -27 -35 -48 -40 -48 -10 0 -50 41 -168 175 -94 107 -133 158
-133 173 0 13 68 50 152 83 94 37 166 47 345 48 l172 1 -18 -42z m702 -24
c107 -32 211 -44 303 -33 82 9 181 34 202 51 6 6 12 8 12 4 0 -18 -299 -546
-310 -546 -19 1 -295 472 -315 539 -6 21 -5 23 11 16 11 -4 54 -18 97 -31z
m-1369 -152 c11 -26 46 -86 78 -135 99 -149 134 -234 145 -350 6 -66 5 -69
-13 -59 -10 6 -64 57 -118 113 -55 57 -101 98 -104 91 -5 -17 35 -154 78 -262
57 -144 89 -248 99 -320 5 -36 7 -68 5 -71 -1 -3 -36 1 -76 9 -104 19 -570 28
-545 9 17 -12 16 -13 -10 -12 -15 0 -31 4 -35 9 -3 5 -20 -20 -38 -57 -24 -51
-41 -72 -77 -96 -26 -17 -50 -31 -54 -31 -10 0 -21 168 -17 249 l3 63 141 52
c77 28 149 58 160 66 12 8 24 30 27 48 10 49 51 148 142 342 45 96 104 223
131 282 27 60 51 108 54 108 3 0 14 -21 24 -48z m3305 -227 c148 -299 231
-481 231 -504 0 -11 1 -21 3 -21 1 0 63 -25 137 -54 l135 -54 7 -109 c6 -103
1 -203 -10 -203 -3 0 -24 16 -48 35 -24 20 -65 45 -91 57 -26 11 -71 38 -100
60 -32 24 -67 42 -90 45 l-38 5 3 48 c3 43 0 52 -40 101 -24 30 -62 63 -83 74
-51 26 -55 31 -55 83 0 23 -6 58 -14 77 -12 28 -23 36 -67 49 -28 9 -91 20
-138 26 -139 17 -141 17 -141 50 0 62 47 157 183 369 31 50 57 99 57 108 1 42
76 -71 159 -242z m-1851 -198 c37 -34 29 -49 -25 -45 -45 3 -48 5 -84 63 -21
33 -38 63 -38 67 -1 10 120 -60 147 -85z m332 9 c-38 -60 -45 -66 -76 -66 -38
0 -54 21 -37 49 10 16 144 93 151 86 2 -2 -15 -33 -38 -69z m1178 -237 c80
-11 154 -25 164 -30 10 -5 18 -20 18 -33 0 -23 -2 -23 -137 -29 -183 -7 -232
-23 -205 -63 4 -7 56 -14 122 -18 264 -15 369 -46 370 -108 0 -20 -32 -25
-200 -32 -125 -5 -188 -19 -197 -43 -9 -24 11 -30 130 -36 119 -7 264 -34 250
-48 -10 -10 -234 -49 -283 -49 -24 0 -72 18 -141 51 -132 65 -179 81 -331 114
-191 40 -218 48 -218 61 0 26 231 231 315 278 36 20 120 17 343 -15z m-1668
-110 c306 -64 380 -82 380 -91 0 -5 -13 -28 -28 -51 -122 -179 -208 -433 -219
-644 -6 -116 -7 -123 -27 -123 -23 0 -202 46 -436 113 l-155 45 1 123 c1 103
7 145 33 248 39 156 97 288 162 369 46 57 54 63 77 57 15 -4 110 -25 212 -46z
m-504 -62 c2 -2 -11 -38 -30 -79 -19 -42 -42 -107 -51 -144 -10 -38 -20 -72
-24 -76 -3 -4 -44 4 -91 18 -47 13 -128 32 -180 40 -52 9 -97 18 -99 20 -5 5
63 87 107 128 46 44 126 83 194 95 50 9 164 8 174 -2z m1174 -176 c152 -31
422 -92 624 -141 80 -20 157 -47 235 -85 64 -30 129 -55 144 -55 33 0 216 34
300 55 105 27 157 74 157 141 0 24 3 23 128 -40 134 -67 364 -200 421 -243
l34 -26 -6 -72 c-3 -40 -13 -87 -22 -105 -20 -38 -186 -210 -203 -210 -7 0 -9
22 -5 69 5 65 4 73 -31 144 -42 84 -102 160 -160 202 -21 16 -37 24 -35 19 2
-5 20 -38 39 -74 l35 -65 -1 -140 c-3 -226 -36 -438 -89 -553 l-24 -53 -243 3
-243 3 -193 59 c-185 55 -449 153 -667 246 -106 45 -571 275 -592 292 -14 12
-12 39 19 193 24 118 69 248 128 365 52 105 57 111 84 105 11 -3 86 -18 166
-34z m-1940 -75 c36 -8 79 -20 95 -27 29 -12 26 -13 -50 -20 -140 -13 -225
-56 -302 -155 -45 -57 -134 -184 -129 -184 2 0 66 30 142 66 171 81 472 184
541 184 26 1 112 -14 190 -32 l143 -33 0 -45 c0 -71 -15 -105 -72 -171 -48
-56 -261 -252 -332 -307 -16 -12 -24 -22 -18 -22 10 0 221 89 393 166 l76 34
54 -19 c30 -10 169 -51 309 -91 370 -105 384 -109 400 -120 24 -16 -6 -29
-200 -87 -96 -29 -202 -61 -235 -71 -60 -19 -208 -57 -625 -159 l-225 -56
-296 -4 -297 -5 -20 54 c-29 77 -50 195 -62 338 -6 69 -15 152 -20 185 -16 99
-12 126 27 205 21 41 39 79 41 83 3 5 -8 1 -23 -9 -27 -17 -107 -120 -160
-205 -16 -24 -36 -51 -46 -60 -26 -23 -20 -58 18 -106 61 -76 15 -46 -96 65
-120 118 -131 138 -131 249 l0 63 43 21 c23 12 116 61 207 110 173 92 284 143
360 165 61 17 221 17 300 0z m2466 -997 c41 -17 73 -33 71 -35 -4 -4 -146 52
-156 61 -10 11 14 3 85 -26z m377 -136 c-7 -2 -19 -2 -25 0 -7 3 -2 5 12 5 14
0 19 -2 13 -5z"/>
<path d="M4230 5991 c0 -23 72 -56 250 -116 190 -65 260 -80 230 -51 -21 21
-186 92 -315 137 -108 38 -165 48 -165 30z"/>
<path d="M6258 5975 c-93 -23 -368 -135 -368 -151 0 -8 8 -14 17 -14 18 0 424
135 454 151 55 29 -6 37 -103 14z"/>
<path d="M3707 4683 c-68 -102 -167 -270 -167 -284 0 -9 9 -24 20 -34 20 -18
21 -18 66 26 49 48 159 223 169 270 15 66 -47 81 -88 22z"/>
<path d="M6769 4648 c-79 -114 -132 -206 -125 -223 3 -8 17 -20 31 -27 21 -9
28 -8 45 7 22 20 128 188 156 248 18 38 18 39 -1 53 -35 26 -53 16 -106 -58z"/>
<path d="M3908 4650 c-20 -12 -145 -211 -154 -245 -5 -20 -1 -27 20 -36 33
-15 42 -8 117 93 68 92 98 160 79 183 -14 17 -37 19 -62 5z"/>
<path d="M5191 4575 c-169 -92 -261 -171 -261 -225 0 -31 22 -60 46 -60 20 0
80 31 162 85 38 24 90 55 116 69 l48 25 68 -34 c38 -19 104 -57 146 -85 85
-55 111 -65 149 -56 28 7 41 41 31 81 -9 35 -107 110 -233 179 -143 78 -164
80 -272 21z"/>
<path d="M7172 4565 c-25 -18 -107 -131 -116 -161 -10 -32 27 -61 58 -46 40
18 125 132 126 168 0 50 -28 67 -68 39z"/>
<path d="M4803 3175 c0 -8 4 -12 9 -9 5 3 6 10 3 15 -9 13 -12 11 -12 -6z"/>
<path d="M6698 1448 c10 -18 45 -77 76 -131 63 -107 167 -226 221 -251 35 -17
55 -15 55 6 0 18 -109 151 -231 281 -120 126 -158 156 -121 95z"/>
<path d="M1519 9711 c-64 -64 -48 -113 66 -206 39 -31 73 -63 77 -70 10 -16
-34 -71 -120 -150 -55 -51 -62 -61 -62 -95 0 -27 8 -48 26 -69 61 -73 96 -64
219 59 49 50 92 90 96 90 4 0 49 -45 101 -100 101 -107 119 -116 177 -86 38
20 61 58 61 103 0 33 -7 43 -57 88 -31 27 -79 71 -107 97 l-50 46 24 21 c14
12 43 35 66 50 22 16 57 50 78 75 45 55 43 86 -9 141 -26 28 -40 35 -71 35
-35 0 -46 -8 -125 -86 l-87 -86 -56 42 c-31 23 -56 45 -56 49 0 3 -17 25 -39
49 -32 35 -45 42 -76 42 -30 0 -45 -8 -76 -39z"/>
</g>
</svg>
